<?xml version="1.0" encoding="UTF-8"?>
<svg id="Layer_2" data-name="Layer 2" xmlns="http://www.w3.org/2000/svg" viewBox="0 0 229.53 131.63">
  <defs>
    <style>
      .cls-1 {
        opacity: 0;
      }

      .cls-2 {
        fill: #af5500;
      }
    </style>
  </defs>
  <g id="Layer_1-2" data-name="Layer 1">
    <g>
      <polyline class="cls-2" points="108.77 44.47 81.57 51.86 46.22 44.75 46.53 108.63 111.46 121.82 111.39 45 108.77 44.47"/>
      <path class="cls-1" d="m119.47,129.96l-3.99.83,3.99.81v-1.65M38.21,43.13l.36,72.04,72.91,14.81v-4.08s-68.92-14-68.92-14l-.34-67.96-4-.81"/>
      <polyline class="cls-1" points="111.38 43.76 108.77 44.47 111.39 45 111.46 121.82 46.53 108.63 46.22 44.75 42.21 43.94 42.55 111.9 111.47 125.9 111.38 43.76"/>
      <polyline class="cls-2" points="183.64 44.18 148.45 51.7 121.47 44.48 119.38 44.94 119.46 121.79 184.21 108.27 183.64 44.18"/>
      <path class="cls-1" d="m111.47,129.98v1.65s4.01-.84,4.01-.84l-4.01-.81m80.15-87.51l-3.99.85.61,68.18,4-.04-4,.04-68.77,14.37v.83s0,3.25,0,3.25l72.79-15.21-.03-3.28-.62-69"/>
      <path class="cls-1" d="m115.47,126.71h4s-4,0-4,0m-.09-83.86l.09,83.86-4-.81v4.08s4.01.81,4.01.81l3.99-.83v-3.25s0-.83,0-.83l-4,.84-.09-83.86"/>
      <polyline class="cls-1" points="115.05 42.77 111.38 43.76 111.47 125.9 115.47 126.71 115.38 42.86 115.05 42.77"/>
      <polyline class="cls-1" points="115.38 42.86 115.47 126.71 119.47 125.88 188.24 111.51 187.42 107.6 188.24 111.51 187.63 43.33 183.64 44.18 184.21 108.27 119.46 121.79 119.38 44.94 121.47 44.48 115.38 42.86"/>
      <path class="cls-2" d="m116.91,14.72l.12,23.32,55.91-11.94-56.02-11.38m-4-.05l-56.24,12.01,56.36,11.45-.12-23.46"/>
      <path class="cls-1" d="m112.91,13.84l-63.52,13.34,63.65,13.12v-2.17s-56.37-11.45-56.37-11.45l56.24-12.01v-.83m3.99-.35v1.22s56.03,11.38,56.03,11.38l-55.91,11.94v2.25s64.09-13.68,64.09-13.68l-64.21-13.1"/>
      <polyline class="cls-2" points="188.95 27.53 187.53 27.91 186.01 27.6 119.32 41.84 148.5 49.64 216.96 35.02 188.95 27.53"/>
      <polyline class="cls-1" points="192.82 26.49 191.48 26.85 191.48 27.17 221.24 35.13 191.61 41.46 191.62 42.48 225.52 35.24 192.82 26.49"/>
      <polyline class="cls-1" points="183.63 43.16 148.48 50.67 123.59 44.02 121.47 44.48 148.45 51.7 183.64 44.18 183.63 43.16"/>
      <path class="cls-1" d="m191.61,41.46l-3.99.85v1.02s4-.85,4-.85v-1.02m-34.9-8.83l-37.34,7.98v.2s6.6-1.41,6.6-1.41l30.75-6.77m34.76-5.77l-.6.16.6.16v-.32"/>
      <polyline class="cls-1" points="119.38 40.6 117.04 41.1 117.04 41.12 117.48 41.21 119.38 40.8 119.38 40.6"/>
      <polyline class="cls-1" points="115.38 42.68 115.05 42.77 115.38 42.86 115.38 42.68"/>
      <path class="cls-1" d="m187.62,42.31l-3.99.85v1.02s4-.85,4-.85v-1.02m-70.66-.07l-1.58.43v.18s6.09,1.63,6.09,1.63l2.12-.47-6.63-1.77m66.11-15.25l-26.35,5.63-30.75,6.77,57.58-12.3-.49-.1"/>
      <polyline class="cls-1" points="183.07 27 117.04 41.1 117.04 41.1 119.38 40.6 156.73 32.63 183.07 27"/>
      <polyline class="cls-1" points="181.11 26.6 117.04 40.28 117.04 41.1 183.07 27 181.11 26.6"/>
      <polyline class="cls-1" points="190.88 27.01 188.95 27.53 216.96 35.02 148.5 49.64 119.32 41.84 186.01 27.6 183.56 27.1 125.98 39.4 119.38 40.8 117.48 41.21 119.35 41.6 116.97 42.24 123.59 44.02 148.48 50.67 183.63 43.16 187.62 42.31 191.61 41.46 221.24 35.13 191.48 27.17 190.88 27.01"/>
      <polyline class="cls-2" points="81.21 4.12 17.12 18.05 42.07 24.63 106.44 11.11 81.21 4.12"/>
      <polyline class="cls-1" points="81.32 0 0 17.68 8.05 19.8 8.56 17.87 8.05 19.8 36.37 27.26 38.13 26.76 38.12 25.65 8.56 17.87 81.27 2.06 110.48 10.16 114.28 9.14 81.32 0"/>
      <polyline class="cls-1" points="38.12 25.65 38.13 26.76 40.13 26.18 38.12 25.65"/>
      <polyline class="cls-1" points="57.73 23.38 51.4 24.71 51.45 24.72 57.73 23.38"/>
      <polyline class="cls-1" points="51.4 24.71 44.48 26.17 44.59 26.19 51.45 24.72 51.4 24.71"/>
      <polyline class="cls-1" points="110.78 12.24 57.73 23.38 51.45 24.72 44.59 26.19 49.39 27.18 112.91 13.84 112.9 12.68 110.78 12.24"/>
      <path class="cls-1" d="m17.12,18.05L81.21,4.12l25.23,6.99-64.36,13.52-24.96-6.57M81.27,2.06L8.56,17.87l29.56,7.79,2.01.53,1.85-.53,2.49.51,6.92-1.45,6.34-1.33,53.04-11.14-4.6-.94,4.29-1.15-29.21-8.1"/>
      <polyline class="cls-2" points="42.06 27.71 13.01 36.02 81.5 49.81 110.74 41.86 42.06 27.71"/>
      <polyline class="cls-1" points="36.37 27.26 4.56 36.36 38.21 43.13 38.2 42.11 8.79 36.19 38.13 27.8 38.13 27.72 36.37 27.26"/>
      <polyline class="cls-1" points="46.21 43.72 46.22 44.75 81.57 51.86 108.77 44.47 106.58 44.03 81.53 50.84 46.21 43.72"/>
      <path class="cls-1" d="m38.2,42.11v1.02s4.01.81,4.01.81v-1.02s-4.01-.81-4.01-.81m-.07-14.39v.07s.13-.04.13-.04l-.13-.03"/>
      <path class="cls-1" d="m42.21,42.92v1.02s4.01.81,4.01.81v-1.02s-4.01-.81-4.01-.81m69.18-.19l-4.8,1.3,2.19.44,2.62-.71v-1.04"/>
      <polyline class="cls-1" points="115.04 41.73 114.79 42.7 113.12 42.25 111.38 42.73 111.38 43.76 115.05 42.77 114.79 42.7 115.04 41.73"/>
      <polyline class="cls-1" points="70.02 32.45 97.21 38.06 111.38 40.92 111.38 40.85 70.02 32.45"/>
      <polyline class="cls-1" points="97.21 38.06 111.38 40.98 111.38 40.92 97.21 38.06"/>
      <polyline class="cls-1" points="111.38 40.85 111.38 40.92 112.75 41.2 112.91 41.16 111.38 40.85"/>
      <polyline class="cls-1" points="111.38 40.92 111.38 40.98 112.61 41.23 112.75 41.2 111.38 40.92"/>
      <polyline class="cls-1" points="69.98 32.44 70.02 32.45 111.38 40.85 112.91 41.16 112.91 41.16 69.98 32.44"/>
      <polyline class="cls-1" points="49.39 27.18 46.93 27.69 69.98 32.44 112.91 41.16 113.04 41.14 113.04 40.3 49.39 27.18"/>
      <path class="cls-1" d="m112.91,41.16l-.16.03.29.06v-.07s-.13-.03-.13-.03m4.13-.04v.18s.44-.09.44-.09l-.44-.09"/>
      <path class="cls-1" d="m115.05,41.73h0s0,0,0,0h0,0s-1.92.52-1.92.52l1.66.44.26-.97-.26.97.26.07.34-.09v-.85s-.34-.09-.34-.09h0m-2.29-.53l-.15.03.43.09v-.06s-.29-.06-.29-.06"/>
      <polyline class="cls-1" points="115.38 41.82 115.38 42.68 116.97 42.24 115.38 41.82"/>
      <polyline class="cls-1" points="115.04 41.73 115.04 41.73 115.04 41.73 115.04 41.73 115.04 41.73 115.04 41.73 115.04 41.73"/>
      <polyline class="cls-1" points="112.91 41.16 112.91 41.16 113.04 41.19 113.04 41.19 112.91 41.16"/>
      <polyline class="cls-1" points="113.04 41.14 112.91 41.16 113.04 41.19 113.04 41.14"/>
      <polyline class="cls-1" points="117.48 41.21 117.04 41.3 117.04 41.72 115.05 41.73 115.04 41.73 115.38 41.82 116.97 42.24 119.35 41.6 117.48 41.21"/>
      <polyline class="cls-1" points="44.48 26.17 42.02 26.68 42.16 26.71 44.59 26.19 44.48 26.17"/>
      <polyline class="cls-1" points="44.59 26.19 42.16 26.71 46.93 27.69 49.39 27.18 44.59 26.19"/>
      <polyline class="cls-1" points="38.13 26.76 36.37 27.26 38.13 27.72 38.13 26.76"/>
      <polyline class="cls-1" points="40.13 26.18 38.13 26.76 38.13 27.72 38.26 27.76 42.02 26.68 40.13 26.18"/>
      <polyline class="cls-1" points="41.98 25.65 40.13 26.18 42.02 26.68 44.48 26.17 41.98 25.65"/>
      <path class="cls-1" d="m81.5,49.81L13.01,36.02l29.05-8.31,68.68,14.15-29.24,7.94m-39.48-23.13h0l-3.76,1.08-.13.04-29.34,8.4,29.42,5.92,4,.81,4,.81,35.32,7.11,25.05-6.8,4.8-1.3,1.74-.47,1.92-.52h0s-2,0-2,0v-.42s-.44-.09-.44-.09l-1.23-.25-14.17-2.92-27.19-5.6h-.03s-23.05-4.76-23.05-4.76l-4.78-.98-.13-.03"/>
      <polyline class="cls-2" points="148.3 4.16 123.6 10.78 187.41 23.8 212.1 17.18 148.3 4.16"/>
      <path class="cls-1" d="m120.64,12.22l-.48.1,57.32,11.64.34-.07-57.18-11.67M148.17.05l-33.89,9.08,3.8,1.05,30.15-8.08,72.58,14.81-29.35,7.87v1.35s1.35.36,1.35.36l36.71-9.84L148.17.05"/>
      <path class="cls-1" d="m191.46,24.79l-2.51.67,2.53.68v-1.35m-13.66-.9l-.34.07,8.2,1.66.32-.07-8.18-1.67"/>
      <polyline class="cls-1" points="120.16 12.32 116.9 13 116.9 13.49 181.11 26.6 185.68 25.62 177.48 23.96 120.16 12.32"/>
      <polyline class="cls-1" points="187.78 27.22 186.01 27.6 187.53 27.91 188.95 27.53 187.78 27.22"/>
      <polyline class="cls-1" points="191.47 26.14 191.48 26.85 192.82 26.49 191.47 26.14"/>
      <polyline class="cls-1" points="188.95 25.46 187.47 25.86 186 25.56 185.68 25.62 187.16 25.93 187.47 25.86 187.47 25.99 187.64 26.02 187.47 26.06 187.48 26.26 187.81 26.19 190.88 27.01 191.48 26.85 191.47 26.14 188.95 25.46"/>
      <path class="cls-1" d="m187.47,26.06l-4.4.94.49.1,3.91-.84v-.2m0-.2l-.32.07.32.06v-.13"/>
      <polyline class="cls-1" points="187.64 26.02 183.07 27 187.47 26.06 187.64 26.02"/>
      <polyline class="cls-1" points="185.68 25.62 181.11 26.6 183.07 27 187.64 26.02 187.47 25.99 187.16 25.93 185.68 25.62"/>
      <polyline class="cls-1" points="187.81 26.19 187.48 26.26 183.56 27.1 186.01 27.6 187.78 27.22 188.95 27.53 190.88 27.01 187.81 26.19"/>
      <path class="cls-1" d="m116.89,11.45v.2s3.27.66,3.27.66l.48-.1-3.75-.77m-2.61-2.32l-3.81,1.02,3.22.89h1.19s3.19-.86,3.19-.86l-3.8-1.05"/>
      <path class="cls-1" d="m112.89,11.8l-2.12.44,2.12.43v-.88m3.99-.15v1.35s3.27-.68,3.27-.68l-3.27-.66"/>
      <polyline class="cls-1" points="110.48 10.16 106.18 11.31 110.78 12.24 112.89 11.8 112.89 11.05 113.7 11.05 110.48 10.16"/>
      <path class="cls-1" d="m123.6,10.78l24.69-6.62,63.81,13.02-24.69,6.62-63.81-13.02m24.63-8.67l-30.15,8.08-3.19.85h2s0,.41,0,.41l3.75.77,57.18,11.67,8.18,1.67,1.47.3,1.48-.4,2.51-.67,29.35-7.87L148.23,2.11"/>
      <polyline class="cls-1" points="116.89 11.03 114.89 11.04 113.7 11.05 112.89 11.05 112.89 11.8 112.9 12.68 112.91 13.84 112.91 14.67 113.03 38.13 113.04 40.3 113.04 41.14 113.04 41.19 113.04 41.19 113.04 41.26 113.04 41.32 113.04 41.74 115.04 41.73 115.04 41.73 114.78 40.77 115.04 41.73 115.04 41.73 115.25 40.75 115.04 41.73 115.05 41.73 117.04 41.72 117.04 41.3 117.04 41.12 117.04 41.1 117.04 41.1 117.04 40.28 117.03 38.04 116.91 14.72 116.9 13.49 116.9 13 116.89 11.65 116.89 11.45 116.89 11.03"/>
    </g>
  </g>
</svg>